:SAMPLES-PER-SECOND 30
:FULLY-SPECIFIED
:DEGREES
456
root  -39.8712 38.8434 27.9508 164.995 -85.5681 -145.986
RightUpLeg  -47.662 -18.1449 10.7047
RightLeg  23.8204 0.881698 0.203887
RightFoot  3.91934 -0.0710327 0.818182
RightToes  0.00048216 0.542163 -0.142577
Spine  61.0914 -2.27509 4.36917
Spine1  13.5907 2.49584 -6.11864
HEad  -24.9452 -4.81998 1.43959
LeftShoulder1  8.01915 -24.6659 -21.9459
LeftArm  -49.9859 -53.4118 -21.1195
LeftForeArm  46.3328 -14.49 2.2716
LeftHand  -0.25398 0.0180481 5.50724
RightShoulder  3.31013 14.4472 11.3049
RightArm  -27.3982 62.2146 28.7336
RightForeArm  0.715631 -4.85887 3.56619
RightHand  -1.73126 5.89006 -18.0688
LeftUpLeg  -52.8629 29.9139 -21.4488
LeftLeg  22.5227 -2.98307 -1.02202
LeftFoot  3.89175 -2.1273 15.6258
LeftToes  1.06246e-005 4.65855e-005 -8.18505e-006
457
root  -39.5757 38.9976 27.6999 164.624 -85.2294 -148.277
RightUpLeg  -44.2047 -19.0002 9.27398
RightLeg  23.9601 5.2078 2.32914
RightFoot  1.40185 -1.04135 9.51876
RightToes  0.00048216 0.542163 -0.142577
Spine  59.2941 -1.19246 3.32417
Spine1  12.779 2.6477 -4.81876
HEad  -21.5592 -4.87207 0.497563
LeftShoulder1  9.18071 -24.1157 -26.9765
LeftArm  -40.09 -45.8706 -24.0535
LeftForeArm  40.2874 -13.803 0.592252
LeftHand  -0.25398 0.0180481 5.50724
RightShoulder  4.07633 14.6197 15.7099
RightArm  -18.9014 55.2526 33.4797
RightForeArm  0.974738 -3.67028 5.45979
RightHand  -1.61493 4.9172 -18.4072
LeftUpLeg  -49.6073 31.4601 -19.8912
LeftLeg  20.9347 -3.36081 -1.06976
LeftFoot  4.95914 -2.24195 15.3447
LeftToes  1.06246e-005 4.65855e-005 -8.18505e-006
458
root  -39.2875 39.1177 27.3764 162.875 -84.9044 -149.025
RightUpLeg  -41.2793 -19.5744 7.79049
RightLeg  26.4845 6.57307 3.32007
RightFoot  -2.0464 -1.29242 15.4666
RightToes  0.00048216 0.542163 -0.142577
Spine  56.6505 -1.19207 2.22824
Spine1  13.1557 2.22255 -5.29237
HEad  -18.5635 -3.09453 1.25477
LeftShoulder1  8.86472 -21.953 -28.6413
LeftArm  -34.9631 -36.9409 -27.0363
LeftForeArm  38.3108 -15.2677 -0.687456
LeftHand  -0.25398 0.0180481 5.50724
RightShoulder  4.91478 15.4914 19.4177
RightArm  -13.5343 48.2388 36.0389
RightForeArm  -0.788477 -1.85802 6.96949
RightHand  -1.62133 4.48852 -19.2219
LeftUpLeg  -46.2856 32.3918 -17.5086
LeftLeg  19.6111 -2.97664 -1.14253
LeftFoot  6.0691 -2.29961 14.6923
LeftToes  1.06246e-005 4.65855e-005 -8.18505e-006
459
root  -38.9958 39.2819 26.9913 159.21 -84.53 -147.736
RightUpLeg  -38.4192 -19.2375 6.0874
RightLeg  31.1614 3.87576 2.24967
RightFoot  -4.55246 -0.918189 14.7753
RightToes  0.00048216 0.542163 -0.142577
Spine  54.8689 -0.27003 1.59254
Spine1  11.7753 2.20579 -3.98128
HEad  -14.6053 -2.96494 2.05822
LeftShoulder1  9.55784 -21.0338 -32.8285
LeftArm  -31.6034 -26.4916 -27.8218
LeftForeArm  39.6319 -17.5242 -1.55899
LeftHand  -0.25398 0.0180481 5.50724
RightShoulder  5.48066 15.0895 23.2412
RightArm  -8.58267 39.4472 36.4742
RightForeArm  -1.80087 0.663607 8.49043
RightHand  -1.80874 5.0485 -20.2826
LeftUpLeg  -41.744 31.6657 -12.9978
LeftLeg  17.6423 -0.558844 -1.60158
LeftFoot  7.52551 -2.37045 13.9159
LeftToes  1.06246e-005 4.65855e-005 -8.18505e-006
460
root  -38.723 39.4406 26.5324 156.78 -84.6003 -147.678
RightUpLeg  -34.9557 -17.5954 3.15506
RightLeg  36.9311 -0.244325 -0.46375
RightFoot  -5.89844 -0.570193 11.1467
RightToes  0.00048216 0.542163 -0.142577
Spine  52.2752 0.369564 1.05645
Spine1  11.9126 2.0113 -2.95271
HEad  -11.3249 -4.21315 2.23346
LeftShoulder1  9.99501 -20.0197 -36.3382
LeftArm  -28.6269 -16.3566 -26.8126
LeftForeArm  39.9774 -19.9919 -2.26137
LeftHand  -0.25398 0.0180481 5.50724
RightShoulder  5.89265 14.6585 26.3524
RightArm  -5.83452 30.8067 36.0851
RightForeArm  -0.522402 3.22351 9.13581
RightHand  -1.92554 5.63216 -20.4564
LeftUpLeg  -36.6431 29.7343 -8.19397
LeftLeg  15.2017 2.4909 -2.43679
LeftFoot  9.04436 -2.44844 13.2446
LeftToes  1.06246e-005 4.65855e-005 -8.18505e-006
461
root  -38.4785 39.5135 25.9939 157.113 -85.3658 -150.372
RightUpLeg  -30.6835 -15.037 -0.883568
RightLeg  42.4632 -2.91093 -3.12704
RightFoot  -7.01396 -0.388232 9.02364
RightToes  0.00048216 0.542163 -0.142577
Spine  49.2281 0.791008 0.220045
Spine1  12.5774 1.67655 -2.18695
HEad  -8.04184 -6.40287 1.56457
LeftShoulder1  10.0856 -18.8269 -38.9313
LeftArm  -25.3415 -6.59672 -25.3829
LeftForeArm  38.7315 -22.4061 -2.83845
LeftHand  -0.25398 0.0180481 5.50724
RightShoulder  6.2196 14.2443 29.0337
RightArm  -4.0016 22.128 35.22
RightForeArm  0.600939 6.28992 9.36092
RightHand  -1.78368 5.21717 -19.7056
LeftUpLeg  -31.9525 27.033 -4.25893
LeftLeg  13.0625 5.52965 -3.40617
LeftFoot  10.3775 -2.45279 12.4041
LeftToes  1.06246e-005 4.65855e-005 -8.18505e-006
462
root  -38.2401 39.5128 25.3991 158.744 -86.441 -154.246
RightUpLeg  -25.8325 -12.3231 -4.77278
RightLeg  46.7111 -4.36692 -5.27003
RightFoot  -8.12274 -0.276162 7.84815
RightToes  0.00048216 0.542163 -0.142577
Spine  46.1383 1.19778 -0.367279
Spine1  12.7428 1.58477 -1.48442
HEad  -3.51164 -8.62989 1.86634
LeftShoulder1  10.3004 -18.076 -41.3677
LeftArm  -23.3548 3.13508 -23.7423
LeftForeArm  37.7349 -24.5653 -3.29036
LeftHand  -0.25398 0.0180481 5.50724
RightShoulder  6.49795 13.7869 31.6191
RightArm  -0.737406 12.9318 33.3924
RightForeArm  -2.38815 10.3818 9.20131
RightHand  -1.61799 4.25655 -19.6376
LeftUpLeg  -28.2899 24.6389 -1.52794
LeftLeg  11.5099 7.76978 -4.15968
LeftFoot  11.5678 -2.33687 11.1444
LeftToes  1.06246e-005 4.65855e-005 -8.18505e-006
463
root  -37.9833 39.4566 24.7766 158.718 -87.5757 -156.28
RightUpLeg  -20.68 -9.94399 -7.8805
RightLeg  49.4259 -5.68158 -7.40891
RightFoot  -8.83586 -0.191253 6.0008
RightToes  0.00048216 0.542163 -0.142577
Spine  43.2932 1.54131 -0.424448
Spine1  12.2335 1.75458 -0.972539
HEad  1.67506 -10.8091 3.61659
LeftShoulder1  10.5981 -17.6548 -43.5687
LeftArm  -21.8652 12.6625 -21.4258
LeftForeArm  35.8706 -26.6913 -3.8294
LeftHand  -0.25398 0.0180481 5.50724
RightShoulder  6.55261 12.9269 33.924
RightArm  4.39485 3.82368 31.4654
RightForeArm  -8.63186 14.9842 8.15128
RightHand  -1.72293 4.22458 -20.9093
LeftUpLeg  -25.73 23.2044 0.152904
LeftLeg  10.6211 8.57762 -4.48677
LeftFoot  12.5551 -2.206 10.0297
LeftToes  1.06246e-005 4.65855e-005 -8.18505e-006
